<?xml version="1.0" encoding="UTF-8"?>
<svg xmlns="http://www.w3.org/2000/svg" version="1.1" viewBox="0 0 841.9 595.3">
  <defs>
    <style>
      .cls-1 {
        fill="#ffffff";
      }
    </style>
  </defs>
  <!-- Generator: Adobe Illustrator 28.7.1, SVG Export Plug-In . SVG Version: 1.2.0 Build 142)  -->
  <g>
    <g id="Capa_1">
      <g id="Layer_1">
        <path class="cls-1" d="M391.2,336.3c-.1-1.1-.4-2.2-.6-3-.2-.8-.3-1.5-1-1.4s-.9.7-1.1,1.4c-3.6,13-6.9,26.3-10.1,39.4-.1.5-.2,1.3,0,1.6.9,1.4,2,1.4,3.4,1.4,2.6,0,5.6,0,8.1-.2,1.8-.1,2.9-.3,4.5-1,.7-1.6.6-3.6.5-5.2-.9-11.1-2.3-22-3.7-32.9h0Z"/>
        <path class="cls-1" d="M326.1,330.1c-1.9-1.6-4-2.3-6.4-2.6-1.4-.2-2.7,0-4.1-.1,0,0,0,0,0-.1-1.6,0-3.5-.2-5,0-2.1.2-2.4,1.4-2.8,3.4-.2,1.2-.3,3-.4,4.4-.1,4.1-.2,8.1-.5,12.2-.1,1.9-.3,4.5,0,6.2.2,2.2.5,3.5,2.9,3.4,4.2-.1,6.5.2,11.2-1.5,6.1-2.3,9.7-9,9.1-16.3-.3-3.1-1.5-6.8-4-8.9h0Z"/>
        <path class="cls-1" d="M315,367.5c-1.5.5-3,.4-4.6.8-4,.9-4.1,2.3-4.2,6.5-.2,7.2-.4,15.4-.5,22.8,0,1,0,2.3.1,3.2.3,2.8.7,4,3.6,3.8,1.6-.1,2.8-.2,4.4-.5,5-.9,8.2-4.1,11.5-7.9.4-.4.6-.9.8-1.5.8-2.5,1.9-5.1,2.4-7.6,1.1-5.3.2-10.2-3.1-14.3-3-3.7-6-4.6-10.4-5.3h0Z"/>
        <path class="cls-1" d="M735.4,436.5c-38.4-86.9-17.5-92.3,6.8-171.3,4.9-15.8-18.1-20.4-20.5-8-21.2,112.8-131.3,62-174.1,55-92.6-15.1-136,1.8-219.4-7.6-19.2-7.5-54.9-39.8-12-51.9,10.6,14,13.3,34,27.5,45.2,35.7-28-6.8-116.4-39.1-82.1-11.9-5.8,14.6-19.4,20.1-21.9,14.6-6.7,41-.9,40.3-19.9-27-36.6-85.6,5.8-118,19.3-56.2,6.2-103.8-25.5-100.6-83.9,7.1-47.5-77.5,44-14.5,91.4,7.6,7,2.3,10.9-6.4,5.8-7.5-4.4-10.9-10-13.5,2.5,22.6,48.1,68,67.7,82.3,125.6-2.5,51.5-32.9,50.2-57.3,86.9-6.8,22.3-13.6,42.5,17.1,18.2,15.1-31.5,122-79.6,79.4-22.3-24.4,18.7-39.6,43.5-51.4,71.4-3.9,22.8,0,33.3,20.5,13.6,28-136.8,458.3-56.9,497.5,8.9,2.5,9,7,22.9,18.7,19.7,8.6-18.3-9.8-54.6-13.1-74.5-.4-1.4-3.3-8.1-.6-8,19.1,11.2,38.1,46.2,48.8,65.6,5.2,16.6,12.3,18.7,19.2,1.4-3.3-29.2-22.4-54.9-37.8-79.1h0ZM232.6,227.4c-4.6,0-8.4-3.8-8.4-8.4s3.8-8.4,8.4-8.4,8.4,3.8,8.4,8.4-3.8,8.4-8.4,8.4ZM250.4,256.4c-4.6,0-8.4-3.8-8.4-8.4s3.8-8.4,8.4-8.4,8.4,3.8,8.4,8.4-3.8,8.4-8.4,8.4ZM258.5,361.5c0-2.9-.1-5.9-.1-8.8,8.1-.1,16.2-.3,24.4-.4,0,2.9.1,5.9.1,8.8-8.1.1-16.2.3-24.4.4ZM341.6,398.6c-1.7,5.1-4,10-7.7,13.6-1.6,1.6-3.2,2.2-5.1,2.5-3.9.5-7.5.9-11.4.6-6.5-.5-13-.8-19.5-1.2-2.2-.1-4.1-.3-6.5-.8-2.3-.5-3.1-2.3-3.1-4.8,0-1.2,0-3.2.2-4.5.3-2.2.8-3.2,2.9-3.4.8,0,1.3,0,2.1,0,.8,0,1.5.1,2.3,0,3-.8,3.4-1.3,3.5-4.9.2-9.4.6-19.6.4-29.3-.1-4.1.3-8.7.4-12.8.2-7.2.5-14.2.6-21.3,0-.9,0-2,0-2.7,0-1.3-.5-2.2-1.6-2.5-1.1-.3-2,0-3.1-.2-1.7-.3-2.2-1.4-2.6-3,0-.3-.1-1-.2-1.3-.5-3.5.2-6.2,3.7-6.1,2.9,0,4.6.2,7.2-.3.8-.2,1.5-.2,2.2,0,3.9.8,7.6.7,11.5.9,4.8.3,8.9.9,13.8,2.2,4.9,1.4,7.4,5.5,8.7,10.5.2.8.6,2,.7,3,.5,6.1.6,12-.5,18.1-.6,3.6-1.9,6.9-4,9.9-.5.8-1.3,1.7-1.3,2.8,1.3,3.3,2.5,6.2,3.8,9.6,2.6,6.9,3.3,14.2,3.2,21.6,0,1.3-.2,2.9-.6,4h0ZM422.3,409.8c-.1,2.1-.4,5-.6,7.3,0,.5-.4,1.2-.8,1.6,0,0-.1.1-.2.1-10.5-1.1-21-1.4-31.5-1.7-.2,0-.7,0-1,0-1.4-.3-1.9-1.1-2-2.6,0-2.9.2-6.2.6-9.1.2-1.4,1-2.3,2.2-2.4s2.3,0,3.4,0c5.4-.5,5.3-2.1,5-7.5-.1-1.7-.4-4.3-.6-6.2-.2-1.4-.2-3.2-1.1-4.2-.9-1-2.1-.7-3.2-.7-4.1,0-8.1.2-12.2,0,0,0-.2,0-.3,0-4.7.4-5,1.8-6.3,6.2-.5,1.9-1.3,4.5-1.8,6.4-.1.5-.2,1.2-.1,1.6.6,1.6,2.1,1.2,3,2.3.2.2.3.7.3,1.1-.1,3.1-.5,6.4-1,9.5-.2,1.4-.9,2.4-2,2.8s-2.2.5-3.3.5c-5.3-.4-10.3-.7-15.5-.3-.5,0-1,.1-1.7,0-2.6-.5-3.5-1.9-3.6-4.8-.1-3.6.3-8.1,1.1-11.7.5-2,.8-2.5,2.8-2.7,1.3-.1,3.3,0,4.7,0,1.4-.1,2.4,0,3.7-.4,1.8-.5,2.8-1.5,3.4-3.4,1.7-5.4,3.7-10.8,4.9-16.4,1-4.8,2.7-9.6,4.1-14.3,1.9-6.7,3.8-13.4,5.7-20,.8-2.9,1.4-6,2-8.9.2-1.1.5-2.2,0-3.1-.8-1.2-1.9-1-3.2-1s-2.7.3-4,.2-1.8-1-1.8-2.2c0-1.8.3-4.2.7-5.8.4-1.6.9-2.5,2.5-2.7,1.5-.2,2.4-.1,4.1,0,5.5.4,12.2.7,17.6,1.2,3,.3,4.9.2,7.5.3,2.6,0,4.8.5,7.4.9,1,.2,1.5,1.2,1.6,2.4,0,2,0,4.4-.9,6.4-.8.7-1.6.3-2.5.4-2.6.2-2.7,1.6-2.7,4,0,.6.1,1.5.2,2.3,1.2,9.4,2.4,18.8,3.3,28.4,1,10.8,1.7,21.7,3,32.5.1.8.3,2.5.4,3,.5,3.7.7,5.4,4.5,5.7.5,0,.8,0,1.4.2,2.3.8,2.8,2,2.7,4.6h0ZM503.3,341.8c-.2.8-.6,1.7-.7,2.6-1.8,12-3.3,23.8-5.1,35.9-.6,3.8-1,8.3-1.7,12.1-1.1,6.3-2,12.5-2.8,18.7-.3,2.7-.8,5.6-1.5,7.9-.5,1.7-1.1,2.6-2.6,2.4-2.9-.3-5.3-.4-8.1-.5-1.5,0-2.3-1.2-2.8-2.7-.3-.8-.7-1.8-1-2.8-1.8-6.7-3.7-13.6-5.3-20.4-.8-3.2-1.5-6.2-2.6-9.3-1.9-5.1-3-10.2-4.7-15.4-1.2-3.9-2.6-7.8-4.1-11.7-1.1-2.9-2.2-5.9-3.3-8.8-.5-1.2-1.2-2.5-1.8-3.8-.1-.3-.6-.6-.9-.9-.9.8-1.2,1.9-1.4,3-.3,1.8-.6,3.6-.8,5.4-1.8,13.3-3.4,26.5-4.4,39.9-.3,3.9-.3,8.1-.3,11.8,0,1.7.4,2.3,1.6,2.9.9.4,1.5.3,2.4.5,1.6.4,1.9,1.8,1.8,3.1-.2,4.7-.6,7.2-5.3,7.6-2.7.2-5,0-7.4-.6-3-.7-5.7-1.3-8.6-2-2.9-.7-3.1-2.6-2.9-5.2.2-4.1.6-6.5,4.9-6.1,1.5.1,2.6.6,4-.1.9-1.4,1.1-3.1,1.3-4.8.4-3.7.8-7.4,1.1-11,.5-5,1-10,1.6-15,.8-6.9,1.3-13.8,1.6-20.7.2-4.2.5-8.5.8-12.8,0-.9.2-2.7.3-3.5.1-2,0-3.3-1.7-4.4-.3-.2-.6-.4-.8-.6-.8-.8-1.4-1.8-1.3-2.9,0-2.1.2-4.4.5-6.4.2-1.5,1-2.4,2.5-2.8.5-.1.9,0,1.3,0,3.5.1,6.6,0,10.2,0,2.6,0,3.7,1.3,4.5,4.1,1.5,5,3.6,9.8,5.5,14.9,2.7,7.3,4.9,14.2,7.6,22,1.2,3.5,3.1,9,4.5,12.8.4,1,.5,1.7,1.4,2.2,1.1-.9,1.2-1.9,1.4-3.3.5-3.9.6-7.4,1-11.5.4-3.2.5-7.2.9-10.5,0-.8.2-1.6.3-2.3.2-3,.1-4.7-3-5.4-4.1-1-4.2-3.4-3.8-7.4.3-2.9.5-6.7,1.3-9.5.5-2,1.1-2.8,3.1-3,.4,0,.8,0,1.3.1,8.7.7,17.8,1.4,26.5,2.2,1.3.1,1.9.2,3,.7,1.6.7,2,2,1.9,3.8s-.3,4.4-.8,6.2c-.5,2.2-1.1,3.2-3.2,3.4s-1.9,0-3,.2c-1.1.2-1.7.9-2,2.2h0ZM531.9,419.7c-3.8,5.5-7.7,7.8-13.9,7.8-3.2,0-5.3-1.2-8-3-2-1.3-3.1-3.7-3.6-6.3-.3-1.4-.5-3.2-.5-4.9,0-6.4.8-12.8,1.8-19.1,0-.3.2-.6.3-.9.8-2.5,2.4-4.7,5-2.9,1.1.7,1,1.9.8,3.1-.5,3.3-.9,7-1.1,10.5,0,1.7-.3,3.8-.2,5.4.1,2.2.5,4.4,1.6,6.2,2.1,3.4,4.7,3.4,7.3.4,1.6-1.8,2.9-4.3,3.8-6.8,1-3,1.7-6.1,2.3-9.3,1-5.4,2-10.9,2.9-16.3,1.8-10.4,3.4-20.9,4.7-31.4.3-2.1.6-4.2,1-6.4.3-1.8.3-3.4-.2-5.1-1.4-1.1-2.8-1.3-4.5-1.7-2.8-.7-2.9-2.6-2.5-5.2,0,0,0-.3,0-.4.7-3.5,1.3-5.8,5.2-5,6.6,1.2,13,2.2,19.4,4.2,1.6.5,3.2.7,4.9,1.2,2.8.8,2.9,2.6,2.4,5.4,0,.4-.3,1.2-.4,1.7-.4,1.3-1.2,2.2-2.4,2.3s-2.1-.2-3.1-.3-1.4-.2-2.5-.1-1.7,1-2,2.1c-.2.6-.4,1.5-.5,2.2-1.6,8.8-3.2,17.5-4.4,26.4-.6,4.8-1.6,9.8-2.9,14.4-1.4,5.1-2.7,10.7-3.8,15.6-1.3,5.9-3.9,11.8-7,16.3h0ZM620.1,352.3c-.3,2-.8,4.3-2,6.1-.9.5-1.6,0-2.5,0-2.6-.2-3,1.1-3.3,3.5,0,.6-.1,1.5-.2,2.3-.3,9.5-.8,19-1.5,28.5-.8,10.8-2,21.7-2.4,32.6,0,.8-.1,2.5-.2,3.1,0,3.7-.2,5.4,3.5,6.4.4.1.8.2,1.3.5,2.1,1.2,2.5,2.4,1.9,5-.5,2.1-1.3,4.9-1.8,7.1-.1.5-.6,1.1-1,1.4,0,0-.1.1-.2,0-10.2-2.9-20.5-4.9-30.8-6.9-.2,0-.7-.1-1-.2-1.3-.5-1.7-1.5-1.5-2.9.4-2.9,1.3-6.1,2.2-8.9.4-1.3,1.4-2.1,2.6-2,1.2,0,2.2.4,3.3.5,5.4.4,5.6-1.2,6.1-6.5.2-1.7.3-4.3.4-6.2,0-1.4.3-3.2-.4-4.3s-1.9-1-3-1.2c-4-.7-8-1.2-12-2,0,0-.2,0-.3,0-4.7-.4-5.2.9-7.2,5.1-.8,1.8-2,4.2-2.8,6-.2.5-.4,1.2-.4,1.5.3,1.7,1.8,1.5,2.6,2.8.2.2.2.7.1,1.1-.6,3.1-1.6,6.3-2.5,9.2-.4,1.4-1.2,2.2-2.5,2.4-1.2.2-2.3.2-3.3-.1-5.1-1.3-10-2.4-15.3-2.9-.5,0-1,0-1.7-.3-2.5-1-3.1-2.5-2.7-5.3.5-3.6,1.7-7.9,3-11.3.8-1.9,1.2-2.3,3.2-2.2,1.3,0,3.3.6,4.6.7,1.4.1,2.4.3,3.8.2,1.8-.2,3-1,3.9-2.8,2.5-5,5.5-10,7.6-15.3,1.8-4.6,4.3-9,6.4-13.4,3-6.3,6-12.5,8.9-18.8,1.3-2.8,2.4-5.7,3.5-8.4.4-1,.9-2.1.5-3-.6-1.3-1.7-1.3-3-1.5-1.2-.2-2.7-.2-3.9-.4-1.2-.2-1.6-1.2-1.4-2.4.2-1.8,1-4.1,1.6-5.6s1.3-2.3,2.9-2.3c1.5,0,2.4.3,4.1.7,5.4,1.3,11.9,2.8,17.2,4.2,2.9.8,4.8,1,7.3,1.5,2.6.5,4.6,1.3,7.2,2.1,1,.3,1.3,1.5,1.1,2.6h0ZM648.1,413.3c-8-1.7-15.9-3.4-23.8-5.1.6-2.9,1.2-5.7,1.8-8.6,8,1.7,15.9,3.4,23.8,5.1-.6,2.9-1.2,5.7-1.8,8.6Z"/>
        <path class="cls-1" d="M595.6,357.9c-.7,0-1,.5-1.3,1.2-5.7,12.2-11.1,24.8-16.5,37.2-.2.5-.4,1.2-.3,1.6.6,1.5,1.7,1.6,3.2,1.9,2.5.5,5.5.9,8,1.1,1.8.2,2.9.2,4.6-.3,1-1.5,1.2-3.4,1.3-5,1-11.1,1.4-22.1,1.8-33,0-1.1,0-2.2,0-3s0-1.5-.7-1.6h0Z"/>
      </g>
    </g>
  </g>
</svg>